<?xml version="1.0" encoding="UTF-8"?>
<svg id="_レイヤー_2" data-name="レイヤー 2" xmlns="http://www.w3.org/2000/svg" viewBox="0 0 521.14 373.19">
  <defs>
    <style>
      .cls-1 {
        fill: #19244c;
      }

      .cls-2 {
        fill: #fff;
      }

      .cls-3 {
        fill: #fafaf8;
      }
    </style>
  </defs>
  <g id="_レイヤー_1-2" data-name="レイヤー 1">
    <g>
      <g>
        <path class="cls-1" d="M470.62,105.59c30.53,36.15,46.57,68.09,46.57,68.09l-223.32,83.38c-34.33-112.41-9.26-193.79,27.46-248.74,65.65,13.62,116.06,57.92,149.29,97.27Z"/>
        <path class="cls-1" d="M196.52,293.41l-130.71,48.8c-29.75-103.47-11.44-176.68,19.06-226.51,9.01,56.78,38.39,121.26,111.65,177.71Z"/>
        <path class="cls-3" d="M84.87,115.7C125.19,49.81,186.82,24.81,186.82,24.81,231.26,5.47,271.67,1.03,307.79,5.99c4.58.63,9.09,1.41,13.53,2.33-33.56,50.21-57.37,122.52-35.03,220.4,2.11,9.22,4.61,18.66,7.57,28.34l-27.98,10.45-69.37,25.9c-73.25-56.45-102.63-120.92-111.65-177.71Z"/>
        <path class="cls-2" d="M405.73,179.05c-.52.93-1.13,1.79-1.8,2.6-2.86,3.42-6.94,5.69-11.42,6.42-14.89,2.43-22.29-10.06-22.29-10.06l10.55-6.36,24.25-14.61c5.13,9.71,3.47,17.13.7,22.01Z"/>
        <path class="cls-1" d="M290.35,68.25c-2.03-.28-4.01-.75-5.92-1.38-8.16-2.69-15.1-8.39-19.59-15.89-14.9-24.92,2.2-47.01,2.2-47.01l18.86,14.38,43.34,33.04c-13.74,16.06-28.2,18.35-38.9,16.86Z"/>
        <path class="cls-1" d="M34.38,241.08c-2.03-.28-4.01-.75-5.92-1.38-8.16-2.69-15.1-8.39-19.59-15.89-14.9-24.92,2.2-47.01,2.2-47.01l18.86,14.38,43.34,33.04c-13.74,16.06-28.2,18.35-38.9,16.86Z"/>
        <path class="cls-1" d="M310.12,284.35c-1.98-.52-3.89-1.21-5.72-2.06-7.78-3.62-14.02-10.11-17.59-18.08-11.88-26.5,7.69-46.43,7.69-46.43l17.05,16.49,39.17,37.89c-15.52,14.34-30.16,14.92-40.6,12.19Z"/>
        <path class="cls-1" d="M92.25,369.08c-1.98-.52-3.89-1.21-5.72-2.06-7.78-3.62-14.02-10.11-17.59-18.08-11.88-26.5,7.69-46.43,7.69-46.43l17.05,16.49,39.17,37.89c-15.52,14.34-30.16,14.92-40.6,12.19Z"/>
      </g>
      <path class="cls-1" d="M102.08,373.19c-3.91,0-7.46-.56-10.54-1.37-2.11-.55-4.2-1.3-6.2-2.23-8.35-3.89-15.09-10.81-18.98-19.49-.65-1.45-1.23-2.93-1.73-4.43l-.7.26-.85-2.94c-10.01-34.81-15.12-68.26-15.22-99.49-4.52.91-9.17,1.04-13.87.39-2.17-.3-4.33-.8-6.42-1.49-8.75-2.88-16.25-8.97-21.13-17.13-15.71-26.28,2.21-49.97,2.39-50.2l1.72-2.23,40.07,30.55c4.69-32.33,15.39-62.3,31.82-89.16C122.8,48.3,185.13,22.43,185.76,22.18c26.6-11.58,53.31-18.42,79.33-20.33l1.42-1.85,2.14,1.62c13.26-.74,26.55-.22,39.52,1.56,4.55.62,9.17,1.42,13.72,2.37,68.08,14.12,119.62,61.2,150.88,98.21,30.4,36,46.78,68.33,46.94,68.65l1.42,2.82-192.31,71.8,26.02,25.17-2.2,2.04c-16.84,15.56-32.81,15.58-43.24,12.85-2.11-.55-4.2-1.3-6.2-2.23-8.35-3.89-15.09-10.81-18.98-19.49-.21-.47-.42-.95-.62-1.45l-175.18,65.4,28.55,27.62-2.2,2.04c-11.88,10.98-23.33,14.22-32.71,14.22ZM68.42,338.21l.8,3.03c.58,2.21,1.36,4.41,2.32,6.54,3.33,7.44,9.09,13.36,16.2,16.67,1.69.79,3.46,1.42,5.24,1.89,12.36,3.23,24.37.02,35.71-9.54l-30.65-29.65,188.98-70.56.94,2.76c.47,1.36.94,2.57,1.44,3.7,3.33,7.44,9.09,13.36,16.2,16.67,1.69.79,3.46,1.42,5.24,1.89,12.36,3.23,24.36.02,35.71-9.54l-28.12-27.2,194.74-72.71c-4.61-8.53-19.92-35.37-44.72-64.74-30.68-36.33-81.21-82.53-147.7-96.32-4.43-.92-8.92-1.69-13.34-2.3-12.94-1.78-26.22-2.27-39.46-1.46l-1.16.07c-25.79,1.72-52.31,8.45-78.83,19.99-.67.27-61.33,25.51-100.67,89.78-16.83,27.51-27.5,58.38-31.69,91.76l-.61,4.89-43.23-32.96c-3.67,6.04-11.59,22.82-.44,41.48,4.18,7,10.59,12.2,18.04,14.66,1.77.58,3.6,1.01,5.42,1.26,5.16.72,10.25.34,15.13-1.11l3.68-1.1-.04,3.84c-.29,30.85,4.46,64,14.15,98.58l.72-.27Z"/>
    </g>
  </g>
</svg>