<?xml version="1.0" encoding="UTF-8"?>
<svg id="_レイヤー_2" xmlns="http://www.w3.org/2000/svg" version="1.1" viewBox="0 0 1278.3 259.6">
  <!-- Generator: Adobe Illustrator 30.1.0, SVG Export Plug-In . SVG Version: 2.1.1 Build 136)  -->
  <defs>
    <style>
      .st0 {
        fill: #94c5dc;
      }

      .st1 {
        fill: #19244c;
      }

      .st2 {
        fill: #007f5a;
      }

      .st3 {
        fill: #f08441;
      }
    </style>
  </defs>
  <g id="_レイヤー_1-2">
    <g>
      <path class="st2" d="M427,204C397.5,15.7,241.3,23.5,241.3,23.5c-36.9.9-66.3,10.9-89.7,25.9,5.8,1.8,11.4,4.1,16.9,6.9,28.7,14.9,60.1,45.6,65.9,108.7l-163.3,5.6c-9.5,34.8-10.3,62.1-10.3,62.1l366.3-28.6h0Z"/>
      <path class="st3" d="M151.6,49.4c-24.6-7.6-51.5-5.7-75.4,4.9C-3.5,89.4,0,173.1,0,173.1l71-2.5c11-40.4,33.8-91.1,80.5-121.2h.1Z"/>
      <path class="st0" d="M168.5,56.3c-5.4-2.8-11.1-5.1-16.9-6.9-46.8,30.1-69.5,80.8-80.5,121.2l163.3-5.6c-5.7-63.1-37.1-93.8-65.9-108.7h0Z"/>
    </g>
    <g>
      <g>
        <g>
          <path class="st1" d="M540.5,39.8c-5.8-2.9-9-5.2-13.3-9.9v10.8h-5.5v-11c-2.4,2.7-6.1,6.5-13.6,10.3l-4-3.7c5.1-1.8,8.5-3.8,14-9.5h-8.5v-15.3h12.1v-2.5h-17v-4.4h17V.7l5.6.4c.6,0,.7.3.7.5s-.2.3-.3.4c-.4.3-.5.4-.5.6v2h17v4.4h-17v2.5h12.3v15.3h-9c3.1,3.2,6.2,5.5,13.7,9l-3.7,4h0ZM521.7,14.9h-6.8v2.1h6.8v-2.1ZM521.7,20.8h-6.8v2.2h6.8v-2.2ZM534.1,14.9h-6.9v2.1h6.9v-2.1ZM534.1,20.8h-6.9v2.2h6.9v-2.2Z"/>
          <path class="st1" d="M555.6,9.2v-4.4h17.2V.7l6.4.7c.3,0,.6.1.6.5s0,.3-.3.4c-.6.4-.8.6-.8.7v1.8h16.8v4.4h-39.9ZM570,29.9c-.6.1-.7.2-.8.3-3.8,4.7-4.6,5.8-8,8.8l-4.9-2.8c4.5-3.6,6.9-6.9,9-10.4l5,3.1c0,0,.2.3.2.5,0,.3-.3.4-.5.5h0ZM578.1,25.1v11c0,1.5-.4,3.4-2,4-1.1.4-2.9.7-5.9.7l-2.3-5.3c1.1,0,2,.3,3,.3s1.7-.5,1.7-1.3v-9.3h-11.6v-13.2h29.1v13.2h-12ZM584.4,16.2h-17.8v4.7h17.8v-4.7ZM589.1,39.2c-2.5-3.8-5.2-6.8-8.6-9.6l3.6-3.8c3.7,3,6.5,6,9.3,9.7l-4.4,3.6h.1Z"/>
          <path class="st1" d="M645.8,40h-20.7c-6.9,0-8.7-2-10.5-4.5-1.2,1.1-2.7,2.1-3.1,2.5-.4.3-2.4,1.6-2.6,1.8,0,0-.4,1.2-.6,1.2s-.4,0-.7-.6l-2.5-5c2.2-.8,4.5-2,5.9-2.9v-10.6h-4.4v-4.6h9.7v14.3c0,3.4,4.7,4.2,9.3,4.2,7.4,0,14.8-.6,22.1-1.4l-2,5.5h0ZM612.7,10.6c-1.4-2.6-2.9-4.4-5-6.2l3.7-2.9c1.2,1,3.1,2.4,5,6.1l-3.7,3h0ZM619,17.6v-4.1h10.5v-3.6h-5.6c-.8,1.6-1.4,2.6-2,3.5l-4.4-2.2c1.6-1.9,3.6-6.2,4.6-9.7l4.5,1.1c.7.2.9.4.9.7s0,.3-.5.5c-.4,0-.4.2-.5.4,0,.5-.2.7-.6,1.5h3.5V.8l5.1.4c.4,0,1.2,0,1.2.5s-.8.8-.8,1.1v2.8h8.5v4.3h-8.5v3.6h11.1v4.1h-27.1,0ZM637.5,33.4v-1.4h-11.5v1.4h-4.9v-13.2h21.4v13.2h-5ZM637.5,24.2h-11.5v3.6h11.5v-3.6Z"/>
          <path class="st1" d="M675.8,19.6v20.8h-5.1v-20.8h-3.3c-.2,10.7-1.3,15.4-5.2,21.6l-5.1-2.1c3.5-4.9,4.8-9.5,5.2-19.5h-4.6v-5.5h4.7V6.1h-4.1V1.3h21v4.9h-3.4v8h4.3v5.5h-4.4ZM670.7,6.2h-3.3v8h3.3V6.2h0ZM699.3,25.5c0,0-.9,0-1.1.1,0,0-2,2.5-2.3,2.8-4.3,5-9.4,9.3-15.4,12.2l-3.3-3.9c3.5-1.4,11.4-5,17.7-15.5l3.9,2.9c.2.2.7.6.7.9s0,.4-.2.4h0ZM696,4.3c-.3,0-1.4,0-1.6.2-1.5,1.7-6.3,7.2-12.7,10.9l-3.8-3.7c5.5-2.4,10-6.6,13.3-11.6l4.4,2.9c.3.2.8.6.8,1s0,.3-.3.4h-.1ZM696.8,14.9q-.3,0-.7.5c-4.2,4.9-9,9.3-14.7,12.4l-3.6-3.7c6.3-3.1,11.4-8.1,15.5-13.9l4.1,3.2c.2.1.7.6.7,1s0,.5-1.3.5h0Z"/>
          <path class="st1" d="M744.7,41c-9.3-5.7-12.6-9.9-15.9-17.2-4.3,9.1-8.7,13.6-16.8,17.6l-4.5-4.1c10.7-4.3,15-10.5,17.4-20.2h-16.1v-5h16.7c.2-2,.2-4.4.2-5.1,0-2.7,0-4.7-.2-6.2l6.2.3c.3,0,.8,0,.8.6s-.5.8-.9,1.2v2.7c0,2.3,0,4.4-.2,6.5h17.5v5h-17c2.8,8.9,6.5,14.1,17.8,19.6l-4.8,4.5h0l-.2-.2Z"/>
          <path class="st1" d="M793.5,20.4v-5.6h-27.5v5.8h-5v-10.1h23c2.2-2.7,4.3-5.5,5.7-8.7l4.6,1.5c.3,0,.8.4.8.8s0,.2-.2.3c0,0-1.2.4-1.3.6-1,1.8-1.9,3.3-3.6,5.6h8.7v9.9h-5.2ZM782.7,30.3v7c0,3.2-2.7,4-5.5,4h-2.9l-2-4.9c.6,0,3.2.3,3.7.3.8,0,1.1-.7,1.1-1.4v-5h-16v-4.6h16v-2.9l2.2.4c1-.9,1.4-1.4,1.8-2h-12.4v-4.3h21l1.3,2c-2.1,1.9-5.8,4.9-8.3,6.7h15.7v4.5h-15.7v.2ZM768.1,10.1c-1.1-2.3-2.2-4-4-6.2l4.3-2.6c1.5,1.8,2.9,3.5,4.1,6l-4.4,2.8h0ZM778.7,9.2c-1.2-2.4-2.4-4.3-4.3-6.7l4.1-2.5c2.2,2.5,3.5,4.7,4.5,6.8l-4.5,2.4h.2Z"/>
        </g>
        <g>
          <path class="st1" d="M520.9,112.3c-6.1-4.9-13-7.2-16.9-8.4l5.7-10.5c3.9,1.3,11.2,4.1,17,8.6l-5.8,10.3h0ZM519.4,152.6c-.7,1.3-.9,1.6-1,2.7,0,2.4,0,3.1-1.4,3.1s-2.2-.8-2.6-1.1l-8.2-7.2c5.9-7.5,12.7-17.8,17.6-30.2l9.1,6.1c-3.2,7.1-8.1,17.4-13.4,26.6h0ZM527.1,89.4c-5-4.3-10-6.9-15.4-9.2l6.1-10.7c6.8,3.1,10.7,5.5,16,9.8l-6.7,10.1h0ZM591,105.8c-3,8.6-8.4,8.6-18.7,8.7l-5.9-13c2.6.4,6.4,1,8.8,1s4.8-1.1,5.4-5.8c.9-6.9,1.1-11.4,1.2-13.6h-18.1c-.6,6.7-1.1,14-6,21.7-4.3,6.7-9.2,9.8-14.2,12.6h48.8v39.8h-12.4v-2.4h-30.1v2.9h-12.4v-39.7l-7.4-7c4.2-1.2,13.6-4,18.8-14.6,2.8-5.9,2.6-11,2.5-13.3h-16.9v-10.9h59.9c0,7.2-.3,24.2-3.5,33.5h.2ZM579.9,127.9h-30.1v16.8h30.1s0-16.8,0-16.8Z"/>
          <path class="st1" d="M697.1,153.4v-3.6h-58.3v4.3h-11.4v-79.5h81.4v78.8h-11.7ZM662,84.9h-23.1v20.9h23.1v-20.9ZM662,116.3h-23.1v23.5h23.1v-23.5ZM697.2,84.9h-23.1v20.9h23.1v-20.9ZM697.2,116.3h-23.1v23.5h23.1v-23.5Z"/>
          <path class="st1" d="M802.2,141.9c1.7,1,3.8,2.3,9.1,3.8,6.4,1.7,10.9,2.3,13.7,2.6l-8.4,10.6c-9.5-2.3-18.3-5.2-30.1-11l4.8-6h-20.7l5.2,5.4c.3.3.6.7.6,1.3,0,1.1-.9,1.1-1.2,1.1-.6,0-1.1-.1-2.1-.4-2,1.1-10.3,5.6-26.3,9.8l-8-10.6c11.5-1,18.8-4,22.1-6.6h-22.5v-9.1h86.8v9.1h-23.1.1ZM788,85.1v3.6h22.8v40.7h-58.1v-40.7h22.7v-3.6h-35.7v-8.3h35.7v-7.2l11.4.6c2.4,0,3.7.5,3.7,1.4s0,.6-1,1.2-1.3.8-1.3,1.2v2.7h35.5v8.3h-35.7ZM799.6,96h-36v4h36v-4ZM799.6,106.7h-36v4.1h36v-4.1ZM799.6,117.4h-36v4.8h36v-4.8Z"/>
          <path class="st1" d="M850.8,120.7v-14h85.5v14h-85.5Z"/>
          <path class="st1" d="M989.8,82.5c-1.4,8.6-2.7,13.7-5,20.4h17.9v41.8h-18.9v10.7h-10.2v-30.4c-2.3,3.2-3.9,4.8-6.1,6.9l-9.5-6.9c12.7-12.4,18.3-24.1,20.5-42.6h-13.9v-10.3h40v10.3h-14.9.1ZM993.2,113h-9.3v21.9h9.3s0-21.9,0-21.9ZM1042.5,113.8v43.3h-10.9v-43.3h-8.1c-.5,8.5-1,17.4-4.7,27.1-3.5,9.2-7.8,13.4-11.9,17.3l-9.8-6.6c4.5-3.7,7.8-6.3,10.8-12.1,4.4-8.4,4.9-17.6,5.3-25.7h-8.1v-10.1h8.1v-21.3h-5v-9.8h41.4v9.8h-7.2v21.3h8.3v10.1h-8.3,0ZM1031.7,82.4h-7.3v21.3h7.3s0-21.3,0-21.3Z"/>
          <path class="st1" d="M1153.1,156.8h-13.3c-5.1,0-9.6-1.9-9.6-7.5s2.2-21.2,2.5-23.9l-11.9.3c-4.1,14.8-17,27.1-37.2,31.9l-8.9-11.3c20.3-2.2,31.3-11.6,33.8-20.2l-26.2.7v-11l28.2-.7c0-1.7.3-4.9.2-10.5l11.5.5v-19.3h-14.4l8.3,3.8c.8.4,1.2.7,1.2,1.2s-.2.8-.5,1-2.2.8-2.5,1.1c-6.2,10.9-12.6,15.7-24.3,19.8l-7.3-9.2c4.4-1,9.9-2.3,15.4-7.5,4.4-4.1,5.4-7.4,6.3-10.2h-14.2v11.6h-11.1v-21.9h35.1v-5.9l13.6.8c.2,0,1.9,0,1.9,1.2s0,.5-.3.7c-.2.2-1.8,1.2-1.8,1.5v1.6h35.2v21.1h-7.1c-2.8,11.3-5.7,13.1-12.5,13.1h-16.2c-1.2,0-2.5-.2-3.8-1-.2,2.6-.3,4.1-.6,6.1l23.1-.7c-2,14.2-3.2,26.9-3.2,27.4,0,3.4,2.4,3.6,2.9,3.6h4.8c3.3,0,3.8-2.8,4.8-9.4l10.9,4.4c-1.9,11.2-4.1,16.8-13,16.8h.2ZM1151.9,85.9h-18.3v11.2c0,1.5.9,2.5,2.7,2.5h4.8c2.4,0,3.2-2.3,4.5-6.6l6.3,2v-9.1Z"/>
          <path class="st1" d="M1191.4,155.2v-9.9h37.4v-8h-27.6v-10.1h27.6v-6.3c-9.8.8-14.2.9-22.8,1.2-2.3,0-2.5,0-3.4.8-1,.8-1.4,1.2-1.9,1.2-1.5,0-1.7-2.3-1.8-4.2l-.5-8.2h16.7c1.2-2.5,1.5-3.2,4.3-9.8h-12.3v-9.6h55.6v9.6h-10.8c5.8,4.2,11.7,8.5,21.1,17l-9.4,7c-3.8-4-6.1-5.9-7.8-7.4-5.5.6-11.2,1-15.7,1.3l1.5.2c.9,0,1.3.5,1.3,1.2,0,1-1.2,1.4-1.7,1.6v4.2h26.5v10.1h-26.5v8h37.4v9.9h-87l-.2.2ZM1266.4,98.3v-10.3h-63.3v10.9h-11v-20.3h36.1v-9l10.6.2c2.7,0,4.8.2,4.8,1.7s-.4.9-.7,1.2c-1,.7-1.4,1.1-1.4,1.5v4.4h36v19.7h-11.1ZM1233.5,102.1c-2.3,3.9-4.2,6.8-6,9.7,8.4-.2,13.2-.5,18.1-1-1.7-1.1-1.9-1.3-3.8-2.5l5.2-6.1h-13.5,0Z"/>
        </g>
      </g>
      <g>
        <g>
          <path class="st1" d="M504,205.7h13.6v2.1h-5.7v14.2h-2.3v-14.2h-5.6v-2.1h0Z"/>
          <path class="st1" d="M521,211.3c1.6,0,3,.5,4.1,1.6s1.6,2.4,1.6,4-.5,2.8-1.6,3.8-2.5,1.5-4.1,1.5-2.9-.5-4-1.6-1.6-2.3-1.6-3.9.5-2.9,1.6-3.9,2.5-1.6,4.1-1.6h0ZM520.9,213.2c-1,0-1.8.3-2.5,1s-1,1.5-1,2.5.3,1.9,1,2.5,1.5,1,2.6,1,1.9-.3,2.5-1,1-1.5,1-2.5-.3-1.9-1-2.5c-.7-.7-1.6-1-2.6-1h0Z"/>
          <path class="st1" d="M529,205.7h2.1v16.2h-2.1v-16.2ZM536,211.3h2.5l-4.6,5.2,5.5,5.5h-2.8l-5.3-5.5,4.8-5.2h-.1Z"/>
          <path class="st1" d="M547,211.3h2.4l-7.6,16.1h-2.4l3.6-7.7-4.1-8.4h2.4l2.9,6,2.8-6h0Z"/>
          <path class="st1" d="M555.5,211.3c1.6,0,3,.5,4.1,1.6s1.6,2.4,1.6,4-.5,2.8-1.6,3.8-2.5,1.5-4.1,1.5-2.9-.5-4-1.6-1.6-2.3-1.6-3.9.5-2.9,1.6-3.9,2.5-1.6,4.1-1.6h0ZM555.4,213.2c-1,0-1.8.3-2.5,1s-1,1.5-1,2.5.3,1.9,1,2.5,1.5,1,2.6,1,1.9-.3,2.5-1,1-1.5,1-2.5-.3-1.9-1-2.5c-.7-.7-1.6-1-2.6-1h0Z"/>
          <path class="st1" d="M569.6,205.7h14l-10.4,14.2h10.4v2.1h-14.7l10.4-14.2h-9.7v-2.1Z"/>
          <path class="st1" d="M590.6,211.3c1.6,0,3,.5,4.1,1.6s1.6,2.4,1.6,4-.5,2.8-1.6,3.8-2.5,1.5-4.1,1.5-2.9-.5-4-1.6-1.6-2.3-1.6-3.9.5-2.9,1.6-3.9,2.5-1.6,4.1-1.6h0ZM590.5,213.2c-1,0-1.8.3-2.5,1s-1,1.5-1,2.5.3,1.9,1,2.5,1.5,1,2.6,1,1.9-.3,2.5-1,1-1.5,1-2.5-.3-1.9-1-2.5c-.7-.7-1.6-1-2.6-1h0Z"/>
          <path class="st1" d="M598.6,205.7h2.1v16.2h-2.1v-16.2ZM605.6,211.3h2.5l-4.6,5.2,5.5,5.5h-2.8l-5.3-5.5,4.8-5.2h-.1Z"/>
          <path class="st1" d="M618.4,216.8h-7.5c0,1,.4,1.8,1,2.4s1.5.9,2.5.9,2.7-.4,3.9-1.3v2.1c-.7.4-1.3.7-1.9.9-.6.2-1.4.3-2.2.3s-2.1-.2-2.9-.7c-.7-.5-1.3-1.1-1.8-2s-.7-1.8-.7-2.9c0-1.6.5-2.9,1.4-4s2.1-1.5,3.6-1.5,2.5.5,3.4,1.5,1.3,2.3,1.3,4v.3h0ZM611,215.6h5.4c0-.8-.3-1.5-.8-1.9s-1-.7-1.8-.7-1.4.2-1.9.7-.8,1.1-1,1.9h0Z"/>
          <path class="st1" d="M621.8,206.8c.3,0,.7.1.9.4s.4.5.4.9,0,.6-.4.9-.5.4-.9.4-.6-.1-.9-.4-.4-.5-.4-.9,0-.6.4-.9c.2-.2.5-.4.9-.4h0ZM620.8,211.3h2.1v10.7h-2.1v-10.7Z"/>
          <path class="st1" d="M644.1,205.7h2.3v9.2c0,1.2,0,2.2-.3,2.8-.2.6-.4,1.2-.7,1.6-.3.4-.6.8-1,1.1-1.3,1.1-3,1.7-5,1.7s-3.8-.6-5.1-1.6c-.4-.3-.7-.7-1-1.1-.3-.4-.5-.9-.7-1.6s-.3-1.6-.3-2.9v-9.2h2.3v9.2c0,1.5.2,2.6.5,3.2.3.6.9,1.1,1.6,1.4.7.4,1.5.5,2.5.5s2.5-.4,3.4-1.1c.5-.4.8-.8,1-1.4s.3-1.4.3-2.7v-9.2h.2Z"/>
          <path class="st1" d="M651.5,211.3v1.4c.9-1,2-1.6,3.2-1.6s1.3.2,1.9.5,1,.8,1.3,1.4c.3.6.5,1.6.5,2.9v6.1h-2.1v-6.1c0-1.1-.2-1.9-.5-2.3s-.9-.7-1.7-.7-1.8.5-2.5,1.5v7.6h-2.2v-10.7h2.2-.1Z"/>
          <path class="st1" d="M662.4,206.8c.3,0,.7.1.9.4s.4.5.4.9,0,.6-.4.9-.5.4-.9.4-.6-.1-.9-.4-.4-.5-.4-.9,0-.6.4-.9c.2-.2.5-.4.9-.4h0ZM661.3,211.3h2.1v10.7h-2.1v-10.7Z"/>
          <path class="st1" d="M673,211.3h2.3l-4.7,10.9h-.7l-4.8-10.9h2.3l2.9,6.6,2.8-6.6h0Z"/>
          <path class="st1" d="M685.6,216.8h-7.5c0,1,.4,1.8,1,2.4s1.5.9,2.5.9,2.7-.4,3.9-1.3v2.1c-.7.4-1.3.7-1.9.9-.6.2-1.4.3-2.2.3s-2.1-.2-2.9-.7c-.7-.5-1.3-1.1-1.8-2s-.7-1.8-.7-2.9c0-1.6.5-2.9,1.4-4s2.1-1.5,3.6-1.5,2.5.5,3.4,1.5,1.3,2.3,1.3,4v.3h0ZM678.1,215.6h5.4c0-.8-.3-1.5-.8-1.9s-1-.7-1.8-.7-1.4.2-1.9.7-.8,1.1-1,1.9h0Z"/>
          <path class="st1" d="M690.1,211.3v2.4-.2c1.1-1.6,2.2-2.5,3.2-2.5s1.6.4,2.5,1.2l-1.1,1.9c-.7-.7-1.4-1.1-2-1.1s-1.3.3-1.8,1-.8,1.4-.8,2.3v5.6h-2.1v-10.7h2.1,0Z"/>
          <path class="st1" d="M696.8,221.2v-2.3c.6.4,1.2.8,1.8,1,.6.3,1.2.4,1.6.4s.8-.1,1.1-.3.5-.5.5-.8,0-.6-.3-.8-.7-.5-1.3-.9c-1.4-.8-2.3-1.4-2.7-1.9s-.6-1.1-.6-1.8.3-1.5,1-2c.6-.5,1.5-.8,2.5-.8s2.1.3,3.2.9v2.1c-1.2-.8-2.3-1.1-3.1-1.1s-.7,0-1,.3-.4.4-.4.7,0,.5.3.7.6.5,1.2.8l.8.4c1.8,1,2.7,2.1,2.7,3.3s-.3,1.6-1,2.1-1.6.8-2.6.8-1.2,0-1.7-.2c-.5-.1-1.1-.4-1.9-.8h0v.2Z"/>
          <path class="st1" d="M707.5,206.8c.3,0,.7.1.9.4s.4.5.4.9,0,.6-.4.9-.5.4-.9.4-.6-.1-.9-.4-.4-.5-.4-.9,0-.6.4-.9c.2-.2.5-.4.9-.4h0ZM706.5,211.3h2.1v10.7h-2.1v-10.7Z"/>
          <path class="st1" d="M710.1,213l4-3.9v2.2h3.4v1.9h-3.4v5.2c0,1.2.5,1.8,1.5,1.8s1.6-.2,2.4-.8v2c-.8.5-1.7.7-2.7.7s-1.8-.3-2.4-.9-.4-.4-.5-.6c0-.2-.2-.5-.3-.8,0-.4,0-1,0-2v-4.7h-1.9v-.2h0Z"/>
          <path class="st1" d="M726.1,211.3h2.4l-7.6,16.1h-2.4l3.6-7.7-4.1-8.4h2.4l2.9,6,2.8-6h0Z"/>
        </g>
        <g>
          <path class="st1" d="M508.9,247.3l-1.8-1.1c-1.1-.7-1.9-1.3-2.4-2-.5-.6-.7-1.4-.7-2.3,0-1.3.4-2.3,1.3-3.1s2-1.2,3.5-1.2,2.6.4,3.7,1.1v2.6c-1.2-1.1-2.4-1.7-3.8-1.7s-1.4.2-1.9.5-.7.8-.7,1.4.2.9.5,1.4c.4.4.9.9,1.7,1.3l1.8,1.1c2,1.2,3,2.7,3,4.5s-.4,2.4-1.3,3.2-2,1.2-3.4,1.2-3.1-.5-4.4-1.5v-2.9c1.2,1.6,2.7,2.4,4.4,2.4s1.3-.2,1.8-.6c.5-.4.7-.9.7-1.5,0-1-.7-1.9-2.1-2.8h.1Z"/>
          <path class="st1" d="M515.4,237.9h2.1v6.9c.9-1.1,2-1.6,3.3-1.6s1.3.2,1.9.5c.6.4,1,.9,1.3,1.5s.4,1.6.4,2.8v6.1h-2.1v-6.6c0-.8-.2-1.4-.6-1.9s-.9-.7-1.5-.7-.9.1-1.3.4-.9.6-1.4,1.2v7.7h-2.1v-16.2h0Z"/>
          <path class="st1" d="M528.4,238.9c.3,0,.7.1.9.4s.4.5.4.9,0,.6-.4.9-.5.4-.9.4-.6-.1-.9-.4-.4-.5-.4-.9,0-.6.4-.9c.2-.2.5-.4.9-.4h0ZM527.4,243.4h2.1v10.7h-2.1v-10.7Z"/>
          <path class="st1" d="M534.7,243.4v1.4c.9-1,2-1.6,3.2-1.6s1.3.2,1.9.5,1,.8,1.3,1.4c.3.6.5,1.6.5,2.9v6.1h-2.1v-6.1c0-1.1-.2-1.9-.5-2.3s-.9-.7-1.7-.7-1.8.5-2.5,1.5v7.6h-2.2v-10.7h2.2-.1Z"/>
          <path class="st1" d="M545.5,238.9c.3,0,.7.1.9.4s.4.5.4.9,0,.6-.4.9-.5.4-.9.4-.6-.1-.9-.4-.4-.5-.4-.9,0-.6.4-.9c.2-.2.5-.4.9-.4h0ZM544.5,243.4h2.1v10.7h-2.1v-10.7Z"/>
          <path class="st1" d="M557.7,251.6v2.1c-1.1.4-2.1.6-3.1.6-1.7,0-3-.5-4-1.5s-1.5-2.3-1.5-4,.5-3,1.5-4.1c1-1,2.2-1.6,3.8-1.6s1,0,1.5.2c.4.1,1,.3,1.6.6v2.2c-1.1-.7-2.1-1-3-1s-1.7.3-2.3,1-.9,1.5-.9,2.6.3,2,1,2.6,1.5,1,2.7,1,1.8-.2,2.8-.7h0Z"/>
          <path class="st1" d="M560,237.9h2.1v6.9c.9-1.1,2-1.6,3.3-1.6s1.3.2,1.9.5c.6.4,1,.9,1.3,1.5s.4,1.6.4,2.8v6.1h-2.1v-6.6c0-.8-.2-1.4-.6-1.9s-.9-.7-1.5-.7-.9.1-1.3.4-.9.6-1.4,1.2v7.7h-2.1v-16.2h0Z"/>
          <path class="st1" d="M573.1,238.9c.3,0,.7.1.9.4s.4.5.4.9,0,.6-.4.9-.5.4-.9.4-.6-.1-.9-.4-.4-.5-.4-.9,0-.6.4-.9c.2-.2.5-.4.9-.4h0ZM572,243.4h2.1v10.7h-2.1v-10.7Z"/>
          <path class="st1" d="M597,237.9h2.2v16.2h-2l-10.8-12.5v12.5h-2.2v-16.2h1.9l10.9,12.6v-12.6h0Z"/>
          <path class="st1" d="M609.2,254.1v-1.4c-.5.5-1,.9-1.5,1.1-.6.3-1.2.4-1.7.4s-1.3-.2-1.9-.5c-.6-.3-1-.8-1.3-1.4s-.4-1.5-.4-2.9v-6.1h2.1v6.1c0,1.1.2,1.9.5,2.4s.9.7,1.7.7,1.9-.5,2.6-1.5v-7.6h2.1v10.7h-2.2Z"/>
          <path class="st1" d="M623,246.4v7.8h-2.1v-5.9c0-1.2-.2-2-.5-2.5s-.9-.7-1.7-.7-.8.1-1.2.3-.8.6-1.3,1.1v7.8h-2.1v-10.7h2.1v1.4c1.1-1.1,2.1-1.6,3.2-1.6s2.4.6,3.2,1.9c1.1-1.3,2.3-1.9,3.5-1.9s1.9.4,2.6,1.1,1,1.9,1,3.5v6.3h-2.1v-6.3c0-.9-.2-1.6-.5-2s-.9-.7-1.6-.7-1.7.4-2.5,1.3h0v-.2Z"/>
          <path class="st1" d="M639.3,247.7v4.5c0,.4,0,.6.4.6s.7-.2,1.2-.6v1.3c-.5.3-.9.5-1.2.6s-.6.2-.9.2c-.9,0-1.4-.4-1.6-1.1-.9.7-1.9,1.1-2.9,1.1s-1.4-.2-1.9-.7-.7-1.1-.7-1.9.2-1.3.7-1.8,1.2-.9,2.1-1.3l2.7-.9v-.6c0-1.3-.6-1.9-1.9-1.9s-2.3.6-3.4,1.8v-2.3c.8-1,2-1.4,3.5-1.4s2.1.3,2.8.9c.2.2.4.4.6.8s.3.6.3,1v1.8h.2ZM637.3,252v-3.2l-1.4.6c-.7.3-1.2.6-1.5.9-.3.3-.5.6-.5,1.1s0,.8.4,1.1c.3.3.7.4,1.1.4.7,0,1.3-.3,1.9-.8h0Z"/>
          <path class="st1" d="M641.3,245.1l4-3.9v2.2h3.4v1.9h-3.4v5.2c0,1.2.5,1.8,1.5,1.8s1.6-.2,2.4-.8v2c-.8.5-1.7.7-2.7.7s-1.8-.3-2.4-.9-.4-.4-.5-.6c0-.2-.2-.5-.3-.8,0-.4,0-1,0-2v-4.7h-1.9v-.2h0Z"/>
          <path class="st1" d="M657.4,247.7v4.5c0,.4,0,.6.4.6s.7-.2,1.2-.6v1.3c-.5.3-.9.5-1.2.6s-.6.2-.9.2c-.9,0-1.4-.4-1.6-1.1-.9.7-1.9,1.1-2.9,1.1s-1.4-.2-1.9-.7-.7-1.1-.7-1.9.2-1.3.7-1.8,1.2-.9,2.1-1.3l2.7-.9v-.6c0-1.3-.6-1.9-1.9-1.9s-2.3.6-3.4,1.8v-2.3c.8-1,2-1.4,3.5-1.4s2.1.3,2.8.9c.2.2.4.4.6.8s.3.6.3,1v1.8h.2ZM655.3,252v-3.2l-1.4.6c-.7.3-1.2.6-1.5.9-.3.3-.5.6-.5,1.1s0,.8.4,1.1c.3.3.7.4,1.1.4.7,0,1.3-.3,1.9-.8h0Z"/>
          <path class="st1" d="M667.8,237.9h2.3v14.1h7.3v2.1h-9.6v-16.2h0Z"/>
          <path class="st1" d="M685.9,247.7v4.5c0,.4,0,.6.4.6s.7-.2,1.2-.6v1.3c-.5.3-.9.5-1.2.6s-.6.2-.9.2c-.9,0-1.4-.4-1.6-1.1-.9.7-1.9,1.1-2.9,1.1s-1.4-.2-1.9-.7-.7-1.1-.7-1.9.2-1.3.7-1.8,1.2-.9,2.1-1.3l2.7-.9v-.6c0-1.3-.6-1.9-1.9-1.9s-2.3.6-3.4,1.8v-2.3c.8-1,2-1.4,3.5-1.4s2.1.3,2.8.9c.2.2.4.4.6.8s.3.6.3,1v1.8h.2ZM683.8,252v-3.2l-1.4.6c-.7.3-1.2.6-1.5.9-.3.3-.5.6-.5,1.1s0,.8.4,1.1c.3.3.7.4,1.1.4.7,0,1.3-.3,1.9-.8h0Z"/>
          <path class="st1" d="M689.2,237.9h2.1v6.3c.9-.7,1.9-1,2.9-1s2.5.5,3.3,1.5,1.3,2.3,1.3,3.9-.5,3.1-1.5,4.1-2.4,1.5-4.1,1.5-1.4,0-2.2-.2-1.4-.3-1.8-.6v-15.6h0ZM691.3,246.2v5.8c.7.2,1.5.3,2.2.3s1.7-.3,2.3-1,.9-1.5.9-2.6-.3-1.9-.8-2.6c-.5-.7-1.3-1-2.2-1s-1.6.4-2.4,1.1h0Z"/>
          <path class="st1" d="M706.3,243.4c1.6,0,3,.5,4.1,1.6s1.6,2.4,1.6,4-.5,2.8-1.6,3.8-2.5,1.5-4.1,1.5-2.9-.5-4-1.6-1.6-2.3-1.6-3.9.5-2.9,1.6-3.9,2.5-1.6,4.1-1.6h0ZM706.2,245.3c-1,0-1.8.3-2.5,1s-1,1.5-1,2.5.3,1.9,1,2.5,1.5,1,2.6,1,1.9-.3,2.5-1,1-1.5,1-2.5-.3-1.9-1-2.5c-.7-.7-1.6-1-2.6-1h0Z"/>
          <path class="st1" d="M716.6,243.4v2.4-.2c1.1-1.6,2.2-2.5,3.2-2.5s1.6.4,2.5,1.2l-1.1,1.9c-.7-.7-1.4-1.1-2-1.1s-1.3.3-1.8,1-.8,1.4-.8,2.3v5.6h-2.1v-10.7h2.1,0Z"/>
          <path class="st1" d="M730.5,247.7v4.5c0,.4,0,.6.4.6s.7-.2,1.2-.6v1.3c-.5.3-.9.5-1.2.6s-.6.2-.9.2c-.9,0-1.4-.4-1.6-1.1-.9.7-1.9,1.1-2.9,1.1s-1.4-.2-1.9-.7-.7-1.1-.7-1.9.2-1.3.7-1.8,1.2-.9,2.1-1.3l2.7-.9v-.6c0-1.3-.6-1.9-1.9-1.9s-2.3.6-3.4,1.8v-2.3c.8-1,2-1.4,3.5-1.4s2.1.3,2.8.9c.2.2.4.4.6.8s.3.6.3,1v1.8h.2ZM728.4,252v-3.2l-1.4.6c-.7.3-1.2.6-1.5.9-.3.3-.5.6-.5,1.1s0,.8.4,1.1c.3.3.7.4,1.1.4.7,0,1.3-.3,1.9-.8h0Z"/>
          <path class="st1" d="M732.4,245.1l4-3.9v2.2h3.4v1.9h-3.4v5.2c0,1.2.5,1.8,1.5,1.8s1.6-.2,2.4-.8v2c-.8.5-1.7.7-2.7.7s-1.8-.3-2.4-.9-.4-.4-.5-.6c0-.2-.2-.5-.3-.8,0-.4,0-1,0-2v-4.7h-1.9v-.2h0Z"/>
          <path class="st1" d="M746.9,243.4c1.6,0,3,.5,4.1,1.6s1.6,2.4,1.6,4-.5,2.8-1.6,3.8-2.5,1.5-4.1,1.5-2.9-.5-4-1.6-1.6-2.3-1.6-3.9.5-2.9,1.6-3.9,2.5-1.6,4.1-1.6h0ZM746.8,245.3c-1,0-1.8.3-2.5,1s-1,1.5-1,2.5.3,1.9,1,2.5,1.5,1,2.6,1,1.9-.3,2.5-1,1-1.5,1-2.5-.3-1.9-1-2.5c-.7-.7-1.6-1-2.6-1h0Z"/>
          <path class="st1" d="M757.2,243.4v2.4-.2c1.1-1.6,2.2-2.5,3.2-2.5s1.6.4,2.5,1.2l-1.1,1.9c-.7-.7-1.4-1.1-2-1.1s-1.3.3-1.8,1-.8,1.4-.8,2.3v5.6h-2.1v-10.7h2.1,0Z"/>
          <path class="st1" d="M771.7,243.4h2.4l-7.6,16.1h-2.4l3.6-7.7-4.1-8.4h2.4l2.9,6,2.8-6h0Z"/>
        </g>
      </g>
    </g>
  </g>
</svg>