<?xml version="1.0" encoding="UTF-8"?>
<svg id="_レイヤー_2" data-name="レイヤー 2" xmlns="http://www.w3.org/2000/svg" xmlns:xlink="http://www.w3.org/1999/xlink" viewBox="0 0 2247.71 443.54">
  <defs>
    <style>
      .cls-1 {
        fill: none;
      }

      .cls-2 {
        fill: #f9f7ed;
      }

      .cls-3 {
        clip-path: url(#clippath);
      }
    </style>
    <clipPath id="clippath">
      <rect class="cls-1" width="2247.71" height="443.54"/>
    </clipPath>
  </defs>
  <g id="bg">
    <g class="cls-3">
      <path class="cls-2" d="M-196.39,581.61c2.99-22.17,56.44-18.58,56.44-40.96,0-22.37-56.69-22.37-56.69-44.74,0-22.37,56.69-22.37,56.69-44.74,0-22.37-56.69-22.37-56.69-44.74,0-22.37,56.69-22.37,56.69-44.74,0-22.37-56.69-22.37-56.69-44.74,0-22.37,56.69-22.37,56.69-44.75,0-22.37-54.4-69.76-32.24-72.83C-12.18,177.2-6.76,255.79,154.77,255.79s161.53-56.69,323.06-56.69,161.53,56.69,323.06,56.69,161.53-56.69,323.06-56.69,161.53,56.69,323.06,56.69,161.53-56.69,323.06-56.69,161.53,56.69,323.07,56.69,166.95-78.58,326.95-56.42c22.16,3.07-32.24,50.45-32.24,72.82,0,22.37,56.69,22.37,56.69,44.74,0,22.37-56.69,22.37-56.69,44.74,0,22.37,56.69,22.37,56.69,44.74,0,22.37-56.69,22.37-56.69,44.74,0,22.37,56.69,22.37,56.69,44.74,0,22.37-56.69,22.37-56.69,44.75,0,22.37,58.9,64,37.81,71.47-152.28,53.95-135.79-55.07-332.58-55.07-93.73,0-203.44,56.69-323.11,56.69-101.75,0-210.69-56.69-323.11-56.69-105.65,0-214.39,56.69-323.12,56.69s-217.47-56.69-323.12-56.69c-112.43,0-221.37,56.69-323.12,56.69-119.68,0-229.4-56.69-323.12-56.69-201.24,0-356.82,24.56-350.79,24.56Z"/>
    </g>
  </g>
</svg>