<?xml version="1.0" encoding="UTF-8"?>
<svg id="_レイヤー_2" data-name="レイヤー 2" xmlns="http://www.w3.org/2000/svg" viewBox="0 0 1106.88 55.19">
  <defs>
    <style>
      .cls-1 {
        fill: #ea5514;
      }

      .cls-2 {
        fill: #f6ab00;
      }
    </style>
  </defs>
  <g id="_レイヤー_3" data-name="レイヤー 3">
    <g>
      <path class="cls-2" d="M30.86,43.75c.17,2.43-.58,7.46-1.27,9.3-2.77.64-5.55,1.21-9.82,1.21-12.71,0-19.76-5.49-19.76-12.66,0-3.7,1.56-6.47,3.41-8.67,2.6.75,6.24,2.6,7.8,3.99-.87,1.04-1.73,2.37-1.73,3.87,0,2.95,3.06,4.74,9.88,4.74,4.74,0,8.61-.98,11.5-1.79Z"/>
      <path class="cls-1" d="M32.07,17.86c2.77-.81,5.43-1.79,7.69-2.77,1.04,1.68,2.83,6.36,3.29,7.98-2.2.92-4.85,1.85-7.69,2.72,2.02,5.03,3.76,9.88,4.1,11.67-.92,1.33-3.58,3.87-5.37,4.74-2.77-.75-9.71-2.77-14.16-3.87.52-1.56,2.25-5.55,3-7.11,2.43.64,5.03,1.33,6.82,1.91-.4-1.21-1.27-3.24-2.2-5.37-.75.12-1.44.29-2.08.4-3.64.69-9.71,1.68-14.85,1.79-.98-1.44-3.06-6.47-3.64-8.78,4.16.12,10.58-.17,15.26-.98l1.73-.35c-.64-1.39-1.27-2.77-1.91-4.1-4.28.81-9.02,1.39-13.93,1.56-1.16-1.44-3.24-6.47-3.76-8.44,2.43.06,4.51.17,7.28.06,2.14-.12,4.39-.35,6.7-.69l-.23-.52c-.92-1.79-2.2-3.76-3.29-5.49,2.25-.87,6.65-1.91,8.96-2.2.69,1.27,1.79,3.58,3.06,6.36,2.77-.75,5.26-1.68,7.34-2.66.98,1.5,2.83,5.89,3.29,7.69-1.97.81-4.39,1.62-7.22,2.43l1.79,4.05Z"/>
      <path class="cls-2" d="M22.08,15.72c-4.28.81-9.02,1.39-13.93,1.56-1.16-1.44-3.24-6.47-3.76-8.44,2.43.06,4.51.17,7.28.06,2.14-.12,4.39-.35,6.7-.69"/>
      <path class="cls-1" d="M30.28,13.81l1.79,4.05c2.77-.81,5.43-1.79,7.69-2.77,1.04,1.68,2.83,6.36,3.29,7.98-2.2.92-4.85,1.85-7.69,2.72,2.02,5.03,3.76,9.88,4.1,11.67-.92,1.33-3.58,3.87-5.37,4.74-2.77-.75-9.71-2.77-14.16-3.87.52-1.56,2.25-5.55,3-7.11,2.43.64,5.03,1.33,6.82,1.91-.4-1.21-1.27-3.24-2.2-5.37-.75.12-1.44.29-2.08.4-3.64.69-9.71,1.68-14.85,1.79-.98-1.44-3.06-6.47-3.64-8.78,4.16.12,10.58-.17,15.26-.98l1.73-.35c-.64-1.39-1.27-2.77-1.91-4.1"/>
      <path class="cls-2" d="M26.87,6.36c2.77-.75,5.26-1.68,7.34-2.66.98,1.5,2.83,5.89,3.29,7.69-1.97.81-4.39,1.62-7.22,2.43"/>
      <path class="cls-1" d="M18.38,8.21l-.23-.52c-.92-1.79-2.2-3.76-3.29-5.49,2.25-.87,6.65-1.91,8.96-2.2.69,1.27,1.79,3.58,3.06,6.36"/>
      <path class="cls-1" d="M102.47,24.91c.17-1.1.23-4.45.12-6.53,3.29.35,7.11,1.68,9.25,3.06-.29,3-.64,5.84-1.16,8.5,1.68.92,3.24,1.85,4.62,2.66-.29,2.77-1.68,7.51-3.64,10.23-1.21-.92-2.48-1.96-3.93-3-3.01,6.82-7.92,11.91-16.12,15.37-2.25-1.33-5.61-4.45-7.4-7.51,9.13-2.37,13.47-7.05,15.78-12.6-3.53-1.79-7.46-3.29-11.79-4.1-2.37,4.74-4.45,8.9-6.07,11.85-2.02,3.64-4.45,6.07-9.59,6.07-5.66,0-9.77-4.68-9.77-10.63,0-8.73,7.34-16.35,20.23-16.41,1.5-2.95,3.01-6.01,4.28-8.61-2.95.52-8.38,1.27-13,1.79-1.16-2.02-2.25-6.76-2.31-9.36,1.5.06,2.25.12,3.81.12,3.53,0,13.52-.87,18.96-1.97,1.73,1.16,4.22,3.93,5.37,5.61-2.54,3.58-5.03,8.03-7.8,13.47,3.47.75,6.82,1.91,10,3.18l.17-1.16ZM74.73,37.62c1.04-1.62,2.49-4.45,3.76-6.99-5.03.87-7.4,3.76-7.4,6.3,0,1.39.87,2.08,1.56,2.08.87,0,1.33-.23,2.08-1.39Z"/>
      <path class="cls-1" d="M107.73,39.82c-3.01,6.82-7.92,11.91-16.12,15.37-2.25-1.33-5.61-4.45-7.4-7.51,9.13-2.37,13.47-7.05,15.78-12.6"/>
      <path class="cls-2" d="M115.3,32.6c-.29,2.77-1.68,7.51-3.64,10.23-1.21-.92-2.48-1.96-3.93-3,2.01-4.96,2.95-9.88,2.95-9.88"/>
      <path class="cls-2" d="M92.3,22.89c2.77-5.43,5.26-9.88,7.8-13.47-1.16-1.68-3.64-4.45-5.37-5.61-5.43,1.1-15.43,1.97-18.96,1.97-1.56,0-2.31-.06-3.81-.12.06,2.6,1.16,7.34,2.31,9.36,4.62-.52,10.06-1.27,13-1.79-1.27,2.6-2.77,5.66-4.28,8.61-12.89.06-20.23,7.69-20.23,16.41,0,5.95,4.1,10.63,9.77,10.63,5.14,0,7.57-2.43,9.59-6.07,1.62-2.95,3.7-7.11,6.07-11.85,4.33.81,11.79,4.1,11.79,4.1,1.31-2.84,2.03-5.88,2.31-9.02,0,0-6.53-2.43-10-3.18ZM74.73,37.62c-.75,1.16-1.21,1.39-2.08,1.39-.69,0-1.56-.69-1.56-2.08,0-2.54,2.37-5.43,7.4-6.3-1.27,2.54-2.72,5.37-3.76,6.99Z"/>
      <path class="cls-1" d="M152.46,17.68c-2.77,8.55-7.92,20.52-11.79,26.24-2.6-.75-7.17-3-8.96-4.85,4.33-5.9,8.26-14.16,10.63-20.4-2.37.06-4.91.12-7.4,0-1.1-2.2-1.73-6.24-1.79-9.19,2.31.46,5.32.64,6.99.64s4.8-.06,4.8-.06c0,0,.35-1.85.46-2.72.29-2.08.58-4.22.69-6.24,3.58.35,7.22,1.21,9.88,2.37-.29,1.62-.64,3.41-1.04,5.32,2.31-.52,4.8-1.27,7.51-2.31.98,1.85,1.44,6.13,1.21,8.44-2.43,1.04-6.41,2.08-11.21,2.77Z"/>
      <path class="cls-2" d="M142.35,18.67c-2.37.06-4.91.12-7.4,0-1.1-2.2-1.73-6.24-1.79-9.19,2.31.46,5.32.64,6.99.64s3.24,0,4.8-.06"/>
      <path class="cls-2" d="M154.95,8.78c2.31-.52,4.8-1.27,7.51-2.31.98,1.85,1.44,6.13,1.21,8.44-2.43,1.04-6.41,2.08-11.21,2.77"/>
      <path class="cls-1" d="M152.46,17.68c-2.77,8.55-7.92,20.52-11.79,26.24-2.6-.75-7.17-3-8.96-4.85,4.33-5.9,8.26-14.16,10.63-20.4,1.66-4.1,2.6-8.61,2.6-8.61.23-.98.35-1.85.46-2.72.29-2.08.58-4.22.69-6.24,3.58.35,7.22,1.21,9.88,2.37-.29,1.62-.64,3.41-1.04,5.32,0,0-2.17,7.96-2.49,8.9Z"/>
      <path class="cls-2" d="M172.69,35.25c-.12-2.6-.23-5.03-.23-6.53,0-2.6-.17-5.2.17-8.5-2.2-.35-6.47-.46-9.36.23-.12,3.18.12,8.44.29,12.95-.69-.06-1.44-.06-2.2-.06-9.19,0-14.16,5.03-14.16,9.94,0,7.11,5.95,11.21,14.04,11.21s11.62-3.76,11.85-9.59c2.6,1.56,4.97,3.53,6.94,5.72,2.31-1.73,4.16-6.53,4.33-9.3-3.18-2.25-7.05-4.51-11.67-6.07ZM159.97,46c-2.31,0-3.99-1.1-3.99-2.54s1.5-2.31,4.39-2.31c1.16,0,2.25.12,3.41.29,0,2.77-.29,4.57-3.81,4.57Z"/>
      <path class="cls-1" d="M180.9,23.12c-3.87-3.81-10.29-7.57-13.99-9.07.75-2.25,2.77-5.66,4.22-7.22,4.22,1.68,11.44,5.72,14.27,8.26-.69,2.66-2.66,5.95-4.51,8.03Z"/>
      <path class="cls-1" d="M215.11,27.74c4.85-3.58,10.06-5.43,16.01-5.43,10.11,0,15.78,6.47,15.78,14.22,0,13.93-14.45,18.78-27.74,17.63-1.39-1.97-2.77-6.88-3.06-9.65,13.18,1.62,21.04-1.5,21.04-8.21,0-3.12-2.6-5.32-7.17-5.32-6.59,0-11.85,3.93-14.97,7.57-.69.81-1.62,2.2-2.2,3.12-2.02-.75-6.07-2.54-7.63-3.76.52-3.64,1.62-23,1.62-25.2,2.77.23,7.57.98,9.65,1.62-.46,2.89-1.33,10.81-1.33,13.41Z"/>
      <path class="cls-2" d="M214.13,1.16c5.95,1.91,15.6,4.39,20.4,5.26-.4,2.54-1.44,6.18-2.83,8.55-3.93-.69-17.45-4.22-20.34-5.49.4-2.43,1.91-6.59,2.77-8.32Z"/>
      <path class="cls-1" d="M303.19,36c-5.32,8.03-13.81,14.39-22.6,17.68-3.06-1.79-6.76-5.78-8.78-9.07,8.55-1.97,15.43-5.14,21.27-11.96,3.53-4.1,5.89-9.94,6.7-14.68-6.13.06-27.22.35-32.19.46-.52-2.54-.87-8.32-.87-10.29,2.77.23,5.9.4,7.86.4,3.99,0,23.17-.23,27.05-.29,1.33,0,2.95-.12,4.57-.35,1.79.92,4.33,3.01,5.95,4.68-1.68,7.86-4.1,15.89-8.96,23.41Z"/>
      <path class="cls-2" d="M342.49,30.92c-1.56,1.04-5.61,3.06-7.8,3.64-1.1-2.83-3.99-8.96-5.37-11.33,1.56-.87,5.95-2.83,7.69-3.47,1.79,3.01,4.22,8.03,5.49,11.15Z"/>
      <path class="cls-1" d="M369.65,21.85c-1.44,6.76-3.99,13.18-7.97,18.9-4.68,6.7-12.37,10.92-17.11,12.66-1.97-1.21-5.61-4.97-7.05-7.22,5.03-1.21,12.31-4.57,16.76-10.52,3.41-4.45,5.61-9.48,6.53-17.8,2.66.69,6.76,2.54,8.84,3.99Z"/>
      <path class="cls-1" d="M354.8,26.64c-1.62.98-5.72,2.89-7.92,3.41-.98-2.89-3.7-9.07-5.03-11.5,1.62-.81,6.01-2.66,7.8-3.24,1.68,3.06,3.93,8.15,5.14,11.33Z"/>
      <path class="cls-1" d="M424.27,10.23c2.54-.12,3.29-.17,4.57-.46,2.02,1.21,4.16,3.01,5.61,4.57-.92,4.1-4.39,12.83-9.59,19.94,1.73,1.5,3.47,3.06,5.09,4.62-1.27,2.72-3.93,5.84-6.82,7.51-1.44-1.56-3.06-3.18-4.8-4.8-6.13,6.01-12.66,10.17-20.11,12.71-2.54-1.5-6.41-5.14-8.32-8.15,9.07-2.31,15.31-5.37,21.33-10.63-2.66-2.08-5.49-4.1-8.38-6.01,1.62-2.14,4.39-4.85,6.18-6.36,2.95,1.68,5.84,3.53,8.61,5.49,3.01-4.1,4.68-8.15,5.26-10.46l-14.16.23c-4.28,5.55-9.25,10.58-13.52,13.23-2.89-1.16-6.65-4.22-8.15-6.47,9.71-5.03,17.34-14.85,20.52-24.33,3.41.81,6.65,2.2,9.25,4.16-.69,1.68-1.62,3.53-2.72,5.32,8.5-.06,10.17-.17,10.17-.17v.06Z"/>
      <path class="cls-1" d="M418.32,41.61c-6.13,6.01-12.66,10.17-20.11,12.71-2.54-1.5-6.41-5.14-8.32-8.15,9.07-2.31,15.31-5.37,21.33-10.63"/>
      <line class="cls-2" x1="408.72" y1="18.44" x2="422.88" y2="18.2"/>
      <path class="cls-2" d="M424.85,34.27c1.73,1.5,3.47,3.06,5.09,4.62-1.27,2.72-3.93,5.84-6.82,7.51-1.44-1.56-3.06-3.18-4.8-4.8,1.13-.58,6.53-7.34,6.53-7.34"/>
      <path class="cls-2" d="M411.21,35.54c-2.66-2.08-5.49-4.1-8.38-6.01,1.62-2.14,4.39-4.85,6.18-6.36,2.95,1.68,5.84,3.53,8.61,5.49,0,0-4.72,5.46-6.41,6.88Z"/>
      <path class="cls-2" d="M465.42,23.23c13,0,29.94-.23,38.26-.4.4,2.25.46,8.32.29,10.81-9.54-.29-39.47.17-48.02.17-.4-2.54-.75-8.09-.69-10.98,2.31.17,7.28.4,10.17.4Z"/>
      <path class="cls-1" d="M533.56,55.19c-2.95-3.87-7.22-8.55-11.85-12.31,2.02-2.37,4.97-5.09,7.22-6.59,4.33,3.18,9.59,8.9,12.02,12.37-1.5,2.2-5.14,5.26-7.4,6.53Z"/>
      <path class="cls-1" d="M598.12,40.4c.58,3.06.17,8.73-.81,11.1-2.66.92-8.73,2.14-16.07,2.14-11.85,0-20.81-4.91-20.63-15.84.12-6.76,3.76-11.38,8.38-15.03-3.81-5.26-7.4-11.44-8.9-14.51,1.79-1.96,6.07-4.62,8.61-5.49,2.66,6.07,5.72,11.1,8.26,14.62,4.57-2.83,9.48-5.72,12.14-7.57,2.31-1.56,4.51-3.18,5.72-4.22,2.14,2.77,3.87,6.41,4.68,8.73-1.39,1.16-9.42,5.55-15.43,8.96-.35,1.96-.69,4.16-.98,5.84-1.39.75-4.1,1.68-6.18,2.14-.75-.4-1.56-1.1-2.43-1.91-2.08,1.79-3.87,4.16-3.93,7.46-.06,4.22,3.35,6.99,10.52,6.99,8.5,0,14.1-1.96,17.05-3.41Z"/>
      <path class="cls-2" d="M592.22,29.71c-.69-2.14-1.73-4.97-3.06-7.11,1.39-.75,3.52-1.5,4.68-1.79,1.16,1.85,2.54,4.91,3.24,7.05-.98.64-3.24,1.56-4.85,1.85Z"/>
      <path class="cls-1" d="M603.84,25.37c-1.04.64-3.24,1.62-4.85,1.91-.75-2.14-1.85-4.8-3.18-6.99,1.39-.75,3.53-1.56,4.68-1.79,1.16,1.73,2.54,4.74,3.35,6.88Z"/>
      <path class="cls-1" d="M649.44,30.69c0-3.35-1.79-5.72-5.84-5.72-5.37,0-11.27,2.72-19.07,4.1-1.21-2.02-2.77-6.88-3.06-9.48,7.98-.64,17.8-3.53,23.81-3.53,8.32,0,13.93,5.37,13.93,13.87,0,12.83-7.92,21.79-24.04,24.79-2.37-1.79-5.49-6.3-6.53-9.07,12.31-1.39,20.8-5.32,20.8-14.91v-.06Z"/>
      <path class="cls-2" d="M654.18,3.76c.23,2.37-.58,7.17-1.16,9.07-6.18-.29-18.26-1.62-24.5-2.48-.23-2.49,0-6.99.46-9.19,6.01,1.33,19.59,2.6,25.2,2.6Z"/>
      <path class="cls-2" d="M711.11,28.49c-.17,6.36-.98,11.15-3.93,15.49-2.77,3.99-7.92,8.32-13.81,10.29-2.83-1.5-6.7-5.32-8.26-7.4,4.1-1.1,9.19-3.12,12.14-6.3,3.18-3.47,3.7-7.17,3.76-11.96-6.41.06-12.02.12-13.7.12-1.85,0-4.1.06-5.72.12-.35-2.14-.81-6.88-.69-9.3,1.73.12,3.58.12,5.55.17,3.47.12,33.87-.23,36.87-.29,1.33,0,4.51-.12,5.9-.17.4,2.6.46,6.88.23,9.19-1.85,0-3.76-.06-5.61-.06l-12.71.12Z"/>
      <path class="cls-1" d="M711.11,28.49c-.17,6.36-.98,11.15-3.93,15.49-2.77,3.99-7.92,8.32-13.81,10.29-2.83-1.5-6.7-5.32-8.26-7.4,4.1-1.1,9.19-3.12,12.14-6.3,3.18-3.47,3.7-7.17,3.76-11.96"/>
      <path class="cls-1" d="M687.93,14.27c-.29-2.14-.69-6.41-.58-9.19,1.91.12,2.89.17,4.97.23,3.64.12,19.36-.12,22.37-.23,2.02-.06,3.53-.23,4.91-.35.35,2.2.58,6.59.46,9.19-2.83,0-22.83.12-26.87.23-.92,0-3.7.06-5.26.12Z"/>
      <path class="cls-1" d="M723.01,17.22c-.52-2.08-1.62-5.32-2.77-7.51,1.5-.64,3.12-1.16,4.39-1.5,1.1,1.91,2.37,5.72,2.77,7.46-.87.58-2.83,1.27-4.39,1.56Z"/>
      <path class="cls-2" d="M729.31,15.03c-.64-2.2-1.73-5.32-2.77-7.28,1.5-.69,3.12-1.21,4.39-1.5,1.1,1.85,2.37,5.37,2.77,7.28-.92.58-2.83,1.21-4.39,1.5Z"/>
      <path class="cls-1" d="M793.41,15.03c1.27,0,4.68-.12,6.01-.17.46,2.66.58,6.13.29,8.96-1.85,0-3.99-.06-5.84-.06l-4.39.06c-.12,15.2-4.51,24.21-19.36,30.34-2.08-1.21-6.42-5.32-8.21-8.32,2.95-.58,5.84-1.33,7.92-2.43,7.4-3.81,9.94-8.9,10-19.53l-11.33.12v12.71c-2.49.29-6.53.35-9.71,0,.06-.81.17-4.16.23-6.01.06-1.79.06-4.16.06-6.59h-4.33c-1.91,0-4.1.06-5.66.12-.52-2.08-.87-7.11-.69-9.13,1.68.12,3.52.17,5.49.23h5.2l-.06-4.8c-.06-1.91-.17-4.22-.35-6.01,2.54,0,7.46.12,9.94.4,0,1.5-.06,5.61-.06,10.34l11.21-.06c0-2.08-.06-3.99-.12-5.37-.06-1.27-.12-3.87-.35-6.01,2.77,0,7.74.17,10.34.4l-.12,10.86,3.87-.06Z"/>
      <path class="cls-2" d="M768.5,23.98v12.71c-2.49.29-6.53.35-9.71,0,.06-.81.17-4.16.23-6.01.06-1.79.06-4.16.06-6.59v-8.78l-.06-4.8c-.06-1.91-.17-4.22-.35-6.01,2.54,0,7.46.12,9.94.4,0,1.5-.06,5.61-.06,10.34l-.06,8.73Z"/>
      <path class="cls-1" d="M793.41,13.58c-.46-1.97-1.56-5.37-2.54-7.4,1.44-.64,3.01-1.1,4.16-1.39.98,1.79,2.25,5.72,2.6,7.4-.87.52-2.72,1.16-4.22,1.39Z"/>
      <path class="cls-2" d="M799.42,11.67c-.64-2.14-1.68-5.37-2.6-7.34,1.39-.52,2.95-.98,4.16-1.27.98,1.73,2.25,5.43,2.6,7.17-.87.58-2.77,1.16-4.16,1.44Z"/>
      <path class="cls-1" d="M850.28,46.35c0,1.97.17,5.49.23,7.22-2.48.35-8.21.35-11.38,0,.17-1.79.35-4.16.46-7.11.17-6.42.23-12.25.11-18.26-5.03,2.77-10.46,5.2-14.56,6.65-2.25-1.97-5.78-6.47-6.99-8.96,7.51-1.44,15.6-4.85,21.27-8.5,5.95-3.81,12.14-9.82,15.14-14.97,2.37,1.91,5.84,5.61,7.17,7.98-2.6,3.41-6.41,7.28-11.44,11.1v24.85Z"/>
      <path class="cls-2" d="M839.7,28.2c-5.03,2.77-10.46,5.2-14.56,6.65-2.25-1.97-5.78-6.47-6.99-8.96,7.51-1.44,15.6-4.85,21.27-8.5,5.95-3.81,12.14-9.82,15.14-14.97,2.37,1.91,5.84,5.61,7.17,7.98-2.6,3.41-6.41,7.28-11.44,11.1,0,0-5.75,4.2-10.58,6.7Z"/>
      <path class="cls-1" d="M904.2,14.22c-.98,2.66-3.93,7.34-5.78,9.48-3.87-2.95-10.75-7.11-15.72-9.42,1.21-2.37,4.28-7.46,5.43-9.07,4.62,2.02,11.73,5.84,16.07,9.02Z"/>
      <path class="cls-2" d="M901.83,37.22c10.63-5.84,16.47-13.81,21.27-24.16,2.72,1.79,6.3,5.95,7.63,8.5-5.66,10.29-13.29,18.84-23.52,24.56-6.13,3.41-12.31,5.84-16.82,7.05-2.72-2.54-5.49-6.94-6.53-10,6.47-.92,12.71-3.06,17.97-5.95Z"/>
      <path class="cls-1" d="M969.45,16.01c-10,.23-19.65.58-23.23.75-.58-2.14-1.1-6.3-1.04-8.96,1.91.12,4.74.17,6.94.12,2.2,0,9.25-.12,17.11-.29-.11-1.73-.23-3.7-.58-5.78,2.77-.23,7.51,0,10.11.58-.06.81-.12,2.6-.17,4.97,7.17-.17,13.7-.4,16.59-.52.46,2.43.52,6.36.4,8.67-3.47-.06-9.94.06-17.11.23v6.82c1.97,2.49,2.95,6.07,2.95,10.52,0,7.57-4.39,17.92-14.79,21.96-2.66-.98-6.99-4.39-8.44-6.53,4.33-.87,8.61-3.06,11.21-6.47-.35.06-.69.06-1.04.06-5.84,0-11.56-4.1-11.56-11.96,0-7.4,5.55-11.85,11.79-11.85h.92l-.06-2.31ZM971.24,27.68c-.69-1.5-1.68-1.91-3.01-1.91-1.62,0-3.18,1.27-3.18,4.05,0,2.43,1.27,4.1,3.12,4.1,1.96,0,3.58-1.16,3.06-6.24Z"/>
      <path class="cls-2" d="M969.45,16.01c-10,.23-19.65.58-23.23.75-.58-2.14-1.1-6.3-1.04-8.96,1.91.12,4.74.17,6.94.12,2.2,0,9.25-.12,17.11-.29l9.36-.23c7.17-.17,13.7-.4,16.59-.52.46,2.43.52,6.36.4,8.67-3.47-.06-9.94.06-17.11.23"/>
      <path class="cls-2" d="M1044.93,3.12c.72.72,1.53,1.88,2.26,3.12s1.38,2.57,1.78,3.64c-1.7,1.39-3.34,2.67-4.94,3.96s-3.18,2.57-4.77,3.96c-.9.78-1.83,1.6-2.68,2.38s-1.6,1.5-2.12,2.07c.66-.23,1.52-.43,2.39-.58s1.77-.23,2.52-.23c4.88,0,9.17,1.31,12.24,3.93s4.92,6.53,4.92,11.73c0,4.33-1.73,8.64-5.23,11.86s-8.76,5.36-15.81,5.36c-3.99,0-7.43-1.03-9.87-2.87s-3.89-4.5-3.89-7.77c0-2.54,1.03-4.84,2.78-6.5s4.24-2.69,7.16-2.69c3.41,0,6.2.92,8.32,2.47s3.58,3.71,4.33,6.2c.95-.78,1.65-1.7,2.1-2.75s.67-2.2.67-3.44c0-2.63-1.17-4.58-3.08-5.87s-4.57-1.93-7.55-1.93c-4.94,0-8.73,1.86-11.78,4.48s-5.38,5.98-7.4,8.99c-1.16-.9-2.46-2.15-3.66-3.5s-2.32-2.8-3.1-4.07c2.05-2.22,4.64-4.87,7.2-7.43s5.11-5.05,7.07-6.96c1.68-1.65,3.31-3.21,4.74-4.6,1.43-1.39,2.66-2.62,3.53-3.6M1033.08,12.48c-1.59.26-3.34.51-5.36.74s-4.32.47-7.01.7c-.4-1.1-.82-2.67-1.17-4.32s-.62-3.37-.74-4.75c.95.09,2.04.14,3.14.17s2.21,0,3.22-.05c2.49-.14,6.78-.48,10.77-.84s7.69-.75,8.99-1.01M1036.38,45.83c-.26-1.24-.72-2.23-1.39-2.9s-1.53-1.03-2.6-1.03c-.69,0-1.2.23-1.53.55s-.49.72-.49,1.07c0,.75.36,1.34,1.08,1.75s1.78.62,3.2.62c.29,0,.58,0,.87,0s.58-.02.87-.05Z"/>
      <path class="cls-1" d="M1034.47,22.25c.66-.23,1.52-.43,2.39-.58s1.77-.23,2.52-.23c4.88,0,9.17,1.31,12.24,3.93s4.92,6.53,4.92,11.73c0,4.33-1.73,8.64-5.23,11.86s-8.76,5.36-15.81,5.36c-3.99,0-7.43-1.03-9.87-2.87s-3.89-4.5-3.89-7.77c0-2.54,1.03-4.84,2.78-6.5s4.24-2.69,7.16-2.69c3.41,0,6.2.92,8.32,2.47s3.58,3.71,4.33,6.2c.95-.78,1.65-1.7,2.1-2.75s.67-2.2.67-3.44c0-2.63-1.17-4.58-3.08-5.87s-4.57-1.93-7.55-1.93c-4.94,0-8.73,1.86-11.78,4.48,2.07-3.14,9.76-11.41,9.76-11.41ZM1033.08,12.48s-3.34.51-5.36.74-4.32.47-7.01.7c-.4-1.1-.82-2.67-1.17-4.32s-.62-3.37-.74-4.75c.95.09,2.04.14,3.14.17s2.21,0,3.22-.05c2.49-.14,6.78-.48,10.77-.84s7.69-.75,8.99-1.01l-11.85,9.36ZM1036.38,45.83c-.26-1.24-.72-2.23-1.39-2.9s-1.53-1.03-2.6-1.03c-.69,0-1.2.23-1.53.55s-.49.72-.49,1.07c0,.75.36,1.34,1.08,1.75s1.78.62,3.2.62c.29,0,.58,0,.87,0s.58-.02.87-.05Z"/>
      <path class="cls-1" d="M1086.66,34.79c0-.35-.12-2.08-.12-2.49,0-3.18,1.62-6.3,4.91-9.54,2.54-2.49,4.85-4.51,4.85-6.7s-1.91-3.7-6.42-3.76c-3.24,0-6.53.98-8.61,2.08l-2.6-7.22c2.95-1.33,7.28-2.95,12.83-2.95,10.92,0,15.37,5.09,15.37,10.34,0,4.97-3.99,8.38-7.05,11.15-4.1,3.76-4.1,6.3-4.1,9.07h-9.07Z"/>
      <path class="cls-2" d="M1085.21,43.86c0-3.7,2.54-6.18,6.01-6.24,3.58,0,6.01,2.54,6.01,6.24,0,3.35-2.2,6.13-6.07,6.13-3.53,0-5.95-2.6-5.95-6.13Z"/>
    </g>
  </g>
</svg>